<svg width="250" height="171" viewBox="0 0 70 48" fill="none" xmlns="http://www.w3.org/2000/svg">
<rect x="0.5" y="0.5" width="69" height="47" rx="5.5" fill="white" stroke="#D9D9D9"/>
<path d="M28.0674 15.5124C27.9988 15.5114 27.9308 15.5239 27.8671 15.5493C27.8035 15.5747 27.7455 15.6124 27.6967 15.6604C27.6478 15.7083 27.609 15.7654 27.5825 15.8284C27.5561 15.8915 27.5424 15.9591 27.5424 16.0274V17.1952L26.0266 18.7056V15.3949C26.0262 15.0241 26.1733 14.6684 26.4356 14.4055C26.7003 14.147 27.0558 14.0015 27.4265 14H45.6022C45.9728 14.0015 46.3283 14.147 46.5931 14.4055C46.85 14.6701 46.9956 15.0226 47 15.3908V30.2679C47 30.6389 46.9084 31.0667 46.5931 31.2552C46.3298 31.5147 45.9745 31.6604 45.6042 31.6607H34.5498C34.4828 31.3033 34.3721 30.9554 34.2202 30.6247L34.7086 30.1402H44.9735C45.1095 30.1391 45.2396 30.0847 45.3356 29.9886C45.4315 29.8926 45.4857 29.7628 45.4862 29.6272V16.0274C45.4862 15.8908 45.4318 15.7598 45.3348 15.6633C45.2379 15.5667 45.1065 15.5124 44.9694 15.5124H42.1616V20.8709L39.195 19.3929L36.2427 20.8709V15.5124H28.0674ZM23.9004 29.7529L23.2534 33.4023C23.2444 33.45 23.2234 33.4946 23.1923 33.532C23.026 33.7209 22.9129 33.9504 22.8647 34.197C22.8462 34.2619 22.8459 34.3306 22.8638 34.3957C22.8818 34.4607 22.9173 34.5196 22.9665 34.566L25.3124 36.9097C25.4683 37.0618 25.6671 37.163 25.8822 37.1996C26.1298 37.2754 26.3934 37.2831 26.6452 37.2219H26.6635L27.105 37.1124C27.7825 36.9482 28.3726 36.8022 28.9219 36.3015L29.6259 35.5696C29.6343 35.5572 29.6439 35.5457 29.6544 35.5351C29.6646 35.5351 29.7338 35.456 29.8274 35.3689C30.3076 34.8985 30.9058 34.3187 30.5415 33.8118L30.2587 33.53C30.1224 33.6618 29.9779 33.7895 29.8396 33.9152C29.7012 34.0409 29.5934 34.1301 29.4835 34.2396C29.4277 34.2952 29.3519 34.3265 29.2729 34.3265C29.1939 34.3265 29.1182 34.2952 29.0623 34.2396C29.0065 34.1839 28.9751 34.1085 28.9751 34.0298C28.9751 33.951 29.0065 33.8756 29.0623 33.8199C29.1702 33.7104 29.3065 33.5908 29.4449 33.4671C29.923 33.0495 30.4622 32.569 30.1753 32.1493L29.8966 31.8716L29.8559 31.8209C29.6951 31.9851 29.5181 32.1412 29.3452 32.2933C29.219 32.4048 29.101 32.5082 28.9911 32.6177C28.9351 32.673 28.8594 32.7041 28.7805 32.7041C28.7017 32.7041 28.626 32.673 28.57 32.6177C28.542 32.5903 28.5197 32.5576 28.5045 32.5216C28.4894 32.4856 28.4815 32.4469 28.4815 32.4078C28.4815 32.3688 28.4894 32.3301 28.5045 32.294C28.5197 32.258 28.542 32.2254 28.57 32.198C28.6778 32.0885 28.8141 31.9689 28.9525 31.8473C29.4306 31.4276 29.9698 30.9471 29.6829 30.5274L29.4042 30.2497C29.3855 30.2299 29.3691 30.2082 29.3553 30.1848L28.5415 30.9957C28.4856 31.0514 28.4099 31.0827 28.3309 31.0827C28.2519 31.0827 28.1761 31.0514 28.1203 30.9957C28.0644 30.9401 28.0331 30.8646 28.0331 30.7859C28.0331 30.7072 28.0644 30.6317 28.1203 30.5761L29.6565 29.0454C30.0247 28.6784 30.1082 28.2973 30.0125 28.0073C29.9779 27.9019 30.0125 27.8999 29.9352 27.8249C29.8966 27.7868 29.8536 27.7534 29.807 27.7255C29.7846 27.7255 29.7684 27.7134 29.746 27.6911C29.7197 27.6782 29.6925 27.6673 29.6646 27.6586C29.4103 27.5735 29.1681 27.7235 28.8345 28.0053L28.8202 28.0175C28.7836 28.0479 28.747 28.0803 28.7103 28.1168L25.5139 31.3019C25.4579 31.3572 25.3822 31.3883 25.3033 31.3883C25.2244 31.3883 25.1487 31.3572 25.0927 31.3019C25.0415 31.2518 25.0104 31.1849 25.0052 31.1136C24.9999 31.0423 25.0209 30.9716 25.0642 30.9146L23.9004 29.7529ZM25.8252 29.9719L25.9289 29.8705L28.0308 27.7742C27.6321 27.5954 27.3012 27.2944 27.0863 26.9151C26.8715 26.5357 26.7839 26.0979 26.8363 25.6654C26.8888 25.2329 27.0785 24.8285 27.3779 24.5111C27.6773 24.1937 28.0706 23.9798 28.5005 23.9009C28.9305 23.8219 29.3745 23.8818 29.7678 24.072C30.1611 24.2621 30.4831 24.5725 30.6869 24.9579C30.8907 25.3433 30.9656 25.7834 30.9007 26.2142C30.8357 26.645 30.6343 27.0438 30.3259 27.3525L30.3055 27.3728C30.3221 27.3866 30.3377 27.4015 30.3523 27.4174C30.4171 27.4786 30.4751 27.5465 30.5253 27.6201L33.1337 25.0311C32.942 24.8383 32.8344 24.5778 32.8344 24.3063C32.8344 24.0349 32.942 23.7744 33.1337 23.5815L31.1906 21.6453C30.9979 21.8372 30.7367 21.945 30.4642 21.945C30.1918 21.945 29.9305 21.8372 29.7379 21.6453L24.3317 27.0322C24.5235 27.225 24.631 27.4855 24.631 27.757C24.631 28.0284 24.5235 28.2889 24.3317 28.4818L25.8252 29.9719ZM30.4113 29.2826C30.3374 29.3857 30.2543 29.4821 30.1631 29.5705L29.8599 29.8746C29.8835 29.8881 29.9054 29.9045 29.925 29.9232L30.216 30.2152C30.2318 30.2314 30.2461 30.2491 30.2587 30.2679C30.4008 30.4365 30.483 30.6472 30.4925 30.8672C30.5021 31.0871 30.4385 31.3041 30.3116 31.4843C30.3522 31.4992 30.389 31.5228 30.4195 31.5533L30.7104 31.8432C30.7264 31.86 30.7407 31.8784 30.7532 31.8979C30.9028 32.0793 30.9846 32.3068 30.9846 32.5416C30.9846 32.7764 30.9028 33.004 30.7532 33.1853C30.7663 33.1942 30.7786 33.2044 30.7898 33.2157L31.0807 33.5057C31.0961 33.523 31.1104 33.5413 31.1235 33.5604C31.801 34.4829 30.9932 35.2655 30.3442 35.898L30.1773 36.0643L29.455 36.8205L29.4306 36.8428C28.7693 37.451 28.1122 37.601 27.3532 37.7855L26.9198 37.893H26.9076C26.5456 38.0004 26.1643 38.0274 25.7906 37.972C25.4556 37.9152 25.1465 37.7566 24.9055 37.5179L22.3846 34.9938C22.2621 34.8807 22.1723 34.737 22.1243 34.5777C22.0764 34.4183 22.0721 34.2491 22.1119 34.0875C22.2038 33.7371 22.3743 33.412 22.6104 33.1367L23.2737 29.3312V29.315C23.2737 29.2684 23.29 29.2157 23.3002 29.1569L22 27.8634L30.5782 19.3159L35.496 24.2161L30.4093 29.2846L30.4113 29.2826Z" fill="black"/>
</svg>
