<svg width="250" height="171" viewBox="0 0 70 48" fill="none" xmlns="http://www.w3.org/2000/svg">
<rect x="0.5" y="0.5" width="69" height="47" rx="5.5" fill="white" stroke="#D9D9D9"/>
<path d="M7.40714 22.4598H5V30.9908H7.40714V22.4598Z" fill="#33CC66"/>
<path d="M13.531 22.4598C13.531 23.2714 13.2175 24.046 12.6456 24.6271C12.0739 25.2081 11.2899 25.531 10.469 25.5402C9.01187 25.5495 7.61923 26.1304 6.59549 27.1542C5.57175 28.1779 5 29.5613 5 31H7.40714C7.40714 30.1883 7.72078 29.4137 8.30176 28.8326C8.88275 28.2516 9.65748 27.9288 10.4784 27.9196C11.9355 27.9103 13.3281 27.3293 14.3519 26.3056C15.3756 25.2819 15.9474 23.8985 15.9474 22.4598C15.938 22.4598 13.531 22.4598 13.531 22.4598Z" fill="#000099"/>
<path d="M10.469 17C9.01187 17.0092 7.61923 17.5902 6.59549 18.614C5.57175 19.6377 5 21.0211 5 22.4598H7.40714C7.40714 21.6482 7.72078 20.8735 8.29253 20.2924C8.86428 19.7114 9.64824 19.3886 10.4691 19.3793C11.2899 19.3886 12.0646 19.7205 12.6457 20.2924C13.2175 20.8642 13.5403 21.6481 13.5311 22.4598H15.9383C15.9383 21.0211 15.3665 19.6377 14.3428 18.614C13.3188 17.5902 11.9263 17.0092 10.469 17Z" fill="#3399FF"/>
<path d="M46.9354 21.7958L46.0592 22.8565C45.6811 22.4784 45.1646 22.257 44.6297 22.257C44.1778 22.257 43.9471 22.4139 43.9471 22.7089C43.9471 22.9487 44.1132 23.0778 44.6112 23.2716L45.2291 23.5298C46.4649 24.0278 47.0276 24.5258 47.0276 25.4574C47.0368 25.7433 46.9814 26.0291 46.8615 26.2874C46.7416 26.5456 46.5479 26.7669 46.3174 26.9422C45.8009 27.3204 45.1737 27.5049 44.5374 27.4772C43.403 27.4772 42.5268 27.0713 41.8904 26.2506L42.7666 25.1991C43.32 25.7709 43.9287 26.0568 44.565 26.0568C45.0261 26.0568 45.3767 25.8816 45.3767 25.5311C45.3767 25.2636 45.1923 25.1622 44.7126 24.9594L44.0301 24.6734C42.8588 24.2031 42.287 23.6774 42.287 22.7458C42.287 21.5562 43.2461 20.8459 44.6388 20.8459C45.5889 20.8366 46.3452 21.1595 46.9354 21.7958ZM34.3188 21.0396H32.7141V21.7221C31.8287 20.6339 29.6337 20.5324 28.4347 21.8235C27.2911 23.0501 27.2358 25.282 28.4347 26.5732C29.6336 27.8644 31.8379 27.7629 32.7233 26.6654V27.3479H34.328L34.3188 21.0396ZM30.9895 25.9276C28.7853 25.9276 28.7853 22.4599 30.9895 22.4599C33.1384 22.4598 33.1476 25.9276 30.9895 25.9276ZM20.0053 29.3214H21.61V26.6745C22.4954 27.7627 24.6996 27.8642 25.8986 26.5823C27.0975 25.2911 27.0422 23.0685 25.8986 21.8326C24.6997 20.5414 22.4954 20.643 21.61 21.7404V21.0579H20.0145L20.0053 29.3214ZM23.3346 22.4598C25.5388 22.4598 25.5388 25.9275 23.3346 25.9275C21.1858 25.9368 21.1949 22.4598 23.3346 22.4598ZM65.4914 21.0119H63.8867V21.6944C63.0013 20.6062 60.7972 20.5047 59.5981 21.7958C58.4545 23.0317 58.3992 25.2543 59.5981 26.5455C60.797 27.8367 63.0013 27.7352 63.8867 26.6377V27.3202H65.4914V21.0119ZM62.1621 25.8999C59.9579 25.8999 59.9579 22.4322 62.1621 22.4322C64.3018 22.423 64.3109 25.8999 62.1621 25.8999ZM40.1661 20.9934L38.4967 25.1436L36.9289 20.9934H35.0844L37.5284 26.9512C37.4546 27.3755 37.1041 27.8458 35.9697 27.8643V29.3584C37.4453 29.4598 38.552 28.7128 39.0685 27.5323L41.9829 20.9934C42.0013 20.9934 40.1661 20.9934 40.1661 20.9934ZM58.2147 22.5613V20.9104C58.0395 20.8828 57.8551 20.8735 57.6798 20.8735C57.2924 20.8643 56.9143 20.9289 56.5546 21.0671C56.1949 21.2055 55.8721 21.4176 55.5955 21.6758C55.3188 21.9525 55.0975 22.2937 54.9499 22.6626C54.8023 23.0315 54.7378 23.4281 54.7563 23.8155V27.357H56.4993V23.7325C56.4809 23.4098 56.6008 23.0962 56.8313 22.8656C56.942 22.755 57.0803 22.6628 57.2279 22.5981C57.3755 22.5336 57.5323 22.5059 57.6982 22.5059C57.8643 22.5152 58.0396 22.5336 58.2147 22.5613ZM50.9012 20.8458C50.2372 20.8458 49.5917 21.0394 49.0383 21.4085C48.4848 21.7774 48.0607 22.2939 47.8024 22.9025C47.5534 23.5112 47.4889 24.1753 47.618 24.8209C47.7472 25.4665 48.0699 26.0567 48.5496 26.5178C49.9422 27.8458 52.3401 27.6891 53.5667 26.6839L52.9027 25.4573C51.9896 26.1581 49.7669 26.398 49.3058 24.7287H53.871C53.9172 24.0923 54.0278 23.1792 53.539 22.3123C52.7365 20.8551 51.2332 20.8458 50.9012 20.8458ZM50.8366 22.2385C51.5744 22.2385 52.1554 22.7088 52.2108 23.4374H49.3241C49.5546 22.7088 50.1265 22.2385 50.8366 22.2385Z" fill="#000099"/>
</svg>
