<svg xmlns="http://www.w3.org/2000/svg" width="250" height="171" viewBox="0 0 70 48" fill="none">
<rect x="0.5" y="0.5" width="69" height="47" rx="5.5" fill="white" stroke="#D9D9D9"/>
<path d="M9.8272 34.505V28.6644H8.1098V26.8568H13.6337V28.6644H11.9163V34.505H9.8272ZM14.6547 34.505V26.8568H16.838C17.6932 26.8568 18.2891 26.896 18.626 26.9745C18.9628 27.0528 19.2535 27.1843 19.4978 27.3688C19.7736 27.5776 19.9856 27.8441 20.1339 28.168C20.2822 28.492 20.3565 28.8491 20.3565 29.239C20.3565 29.8311 20.2108 30.3126 19.9193 30.6835C19.6278 31.0544 19.2028 31.3007 18.6443 31.4228L20.7334 34.5049H18.372L16.6127 31.5114V34.5049L14.6547 34.505ZM16.6129 30.472H17.0003C17.4506 30.472 17.7795 30.3955 17.9872 30.2421C18.1948 30.089 18.2988 29.8486 18.2988 29.521C18.2988 29.1378 18.2021 28.8655 18.0082 28.7035C17.8147 28.5417 17.489 28.4606 17.0317 28.4606H16.6129V30.472Z" fill="black"/>
<path d="M20.6288 34.505L23.2729 26.8568H25.8908L28.5401 34.505H26.4614L26.074 33.1363H23.1052L22.7074 34.505H20.6288ZM23.5556 31.6474H25.6342L24.8541 29.124C24.8297 29.0476 24.7966 28.9238 24.7547 28.7532C24.7128 28.5827 24.6587 28.3633 24.5924 28.095C24.5491 28.2747 24.5046 28.4541 24.459 28.6331C24.417 28.7975 24.3725 28.9611 24.3254 29.124L23.5556 31.6474ZM29.2732 34.505V26.8568H31.2888L34.1842 30.7906C34.2402 30.8708 34.3319 31.0318 34.4591 31.2738C34.5864 31.5159 34.7271 31.8042 34.8807 32.1385C34.8427 31.8572 34.8121 31.575 34.7892 31.2921C34.7711 31.0731 34.7615 30.8536 34.7603 30.6339V26.8568H36.7657V34.505H34.7603L31.8649 30.5557C31.8055 30.4755 31.712 30.3145 31.5848 30.0724C31.4574 29.8303 31.3186 29.5456 31.1684 29.2182C31.2103 29.5388 31.2409 29.8224 31.2601 30.0698C31.278 30.2888 31.2876 30.5083 31.2888 30.728V34.505H29.2732ZM38.75 32.034C39.0608 32.386 39.3668 32.6487 39.6689 32.8229C39.9708 32.9972 40.2719 33.0842 40.5723 33.0842C40.8515 33.0842 41.0809 33.0093 41.2607 32.8594C41.4404 32.7097 41.5303 32.5198 41.5303 32.29C41.5303 32.0358 41.4526 31.8399 41.2974 31.7024C41.1419 31.5648 40.7902 31.423 40.2422 31.2765C39.4919 31.0748 38.9611 30.8115 38.6506 30.4876C38.3398 30.1637 38.1846 29.7198 38.1846 29.1553C38.1846 28.4239 38.4298 27.8278 38.9204 27.3662C39.4107 26.9048 40.0467 26.6739 40.8288 26.6739C41.251 26.6739 41.6516 26.7306 42.0303 26.8437C42.4091 26.9569 42.7677 27.1284 43.1063 27.3582L42.4518 28.8576C42.2145 28.6558 41.9709 28.5032 41.7214 28.4004C41.4718 28.2978 41.2248 28.2464 40.9806 28.2464C40.7293 28.2464 40.5251 28.3066 40.368 28.4266C40.2109 28.5467 40.1324 28.7008 40.1324 28.8888C40.1324 29.0803 40.2012 29.2338 40.3392 29.3486C40.4772 29.4634 40.7434 29.5733 41.1376 29.6779L41.2318 29.7039C42.0834 29.9338 42.6438 30.1863 42.9125 30.4614C43.0939 30.6496 43.232 30.8751 43.3261 31.1379C43.4203 31.401 43.4676 31.6927 43.4676 32.0129C43.4676 32.8247 43.2007 33.4767 42.6664 33.9697C42.1323 34.4623 41.4203 34.7087 40.5303 34.7087C39.9963 34.7087 39.5102 34.6181 39.072 34.437C38.6338 34.256 38.2126 33.9721 37.8074 33.5856L38.75 32.034ZM44.6403 34.505V26.8568H49.3368V28.5338H46.677V29.8607H49.1851V31.5012H46.677V34.505H44.6403ZM50.473 34.505V26.8568H55.1696V28.5338H52.5099V29.8607H55.0179V31.5012H52.5099V32.7915H55.1696V34.5049L50.473 34.505ZM56.5518 34.505V26.8568H58.7353C59.5906 26.8568 60.1864 26.896 60.5232 26.9745C60.8601 27.0528 61.1508 27.1843 61.3952 27.3688C61.671 27.5776 61.8828 27.8441 62.0313 28.168C62.1796 28.492 62.2539 28.8491 62.2539 29.239C62.2539 29.8311 62.1081 30.3126 61.8167 30.6835C61.5252 31.0544 61.1003 31.3007 60.5418 31.4228L62.6308 34.5049H60.2694L58.5101 31.5114V34.5049L56.5518 34.505ZM58.5101 30.472H58.8977C59.3479 30.472 59.6769 30.3955 59.8844 30.2421C60.092 30.089 60.1959 29.8486 60.1959 29.521C60.1959 29.1378 60.0991 28.8655 59.9054 28.7035C59.7118 28.5417 59.3862 28.4606 58.929 28.4606H58.5101V30.472Z" fill="black"/>
<path d="M32.0693 14.4229L33.4606 19.675C33.5264 19.9115 33.5867 20.1578 33.6423 20.4144C33.6976 20.6709 33.7556 20.9653 33.8162 21.2974C33.8918 20.9049 33.9562 20.5816 34.009 20.3276C34.0618 20.0735 34.1136 19.8559 34.1641 19.675L35.4648 14.4229H38.5128L35.3816 25.4704H32.5836L31.2145 20.7539C31.164 20.5879 31.081 20.2634 30.9651 19.7806C30.9144 19.5644 30.8742 19.3957 30.844 19.275C30.8189 19.3806 30.7837 19.5291 30.7382 19.7202C30.6223 20.2082 30.5341 20.553 30.4735 20.7539L29.1273 25.4704H26.3215L23.1981 14.4229H26.2459L27.5164 19.7051C27.5768 19.9767 27.6361 20.2483 27.6941 20.5202C27.752 20.7918 27.8063 21.0709 27.8568 21.3576C27.9043 21.1359 27.9536 20.9145 28.0043 20.6935C28.0808 20.3633 28.1602 20.0338 28.2423 19.7049L29.634 14.4229H32.0693ZM39.6321 25.4704V14.4229H42.6799V25.4704H39.6321ZM45.1152 25.4704V14.4229H48.2688C49.504 14.4229 50.3648 14.4793 50.8514 14.5926C51.338 14.7058 51.7578 14.8958 52.1109 15.1622C52.5091 15.4641 52.8152 15.8491 53.0296 16.3168C53.244 16.7848 53.3511 17.3006 53.3511 17.8639C53.3511 18.7191 53.1407 19.4145 52.7197 19.9504C52.2987 20.4861 51.6849 20.842 50.8781 21.018L53.8957 25.4704H50.4849L47.9438 21.1464V25.4704H45.1152ZM47.9438 19.6449H48.5033C49.1538 19.6449 49.6289 19.5341 49.929 19.3129C50.2291 19.0914 50.3789 18.7444 50.3789 18.2714C50.3789 17.7181 50.2391 17.3244 49.9591 17.0904C49.6794 16.8567 49.2093 16.7396 48.5486 16.7396H47.9438V19.6449ZM55.0451 25.4704V14.4229H61.8292V16.8452H57.9873V18.7619H61.6098V21.1313H57.9873V22.9952H61.8292V25.4704H55.0451Z" fill="black"/>
<path d="M8.20099 14.3422H22.0149V16.5297H8.20099V14.3422Z" fill="black"/>
<path d="M8.20099 18.5882H22.0149V20.7757H8.20099V18.5882Z" fill="black"/>
<path d="M8.20099 23.2204H22.0149V25.4079H8.20099V23.2204Z" fill="black"/>
</svg>