<svg width="250" height="171" viewBox="0 0 70 48" fill="none" xmlns="http://www.w3.org/2000/svg">
<rect x="0.5" y="0.5" width="69" height="47" rx="5.5" fill="white" stroke="#D9D9D9"/>
<path d="M27.1438 12.0422C26.9234 12.0984 26.5203 12.3328 26.3938 12.4828C26.3281 12.5625 26.2203 12.7312 26.15 12.8625L26.0234 13.1016V24V34.8984L26.15 35.1375C26.3375 35.4937 26.4781 35.6391 26.8063 35.8172L27.1016 35.9766H35H42.8984L43.1938 35.8172C43.5219 35.6391 43.6625 35.4937 43.85 35.1375L43.9766 34.8984L43.9906 26.8125C43.9953 22.3641 43.9906 18.6516 43.9766 18.5625C43.9531 18.4219 43.5031 17.9531 40.8219 15.2625C39.0172 13.4531 37.6297 12.1031 37.5453 12.0656C37.4188 12.0094 36.575 12 32.3422 12.0047C29.5625 12.0094 27.2234 12.0234 27.1438 12.0422ZM36.5094 15.9469L36.5234 18.3984L36.6828 18.6937C36.8609 19.0219 37.0063 19.1625 37.3625 19.35L37.6016 19.4766L40.0531 19.4906L42.5 19.5047V27V34.5H35H27.5V24V13.5H32H36.4953L36.5094 15.9469ZM39.7344 16.2891L41.4453 18H39.7203H38V16.2891C38 15.3469 38.0047 14.5781 38.0141 14.5781C38.0188 14.5781 38.7922 15.3469 39.7344 16.2891Z" fill="black"/>
<path d="M31.6953 15.0656C31.3484 15.225 31.25 15.4547 31.25 16.0969V16.5844L31.0062 16.6641C30.2844 16.8984 29.5344 17.4984 29.2672 18.0563C28.7844 19.0641 28.9578 20.0156 29.7734 20.8406C30.3547 21.4313 30.9172 21.6656 31.9437 21.75C32.3515 21.7828 32.5344 21.8203 32.7406 21.9141C33.739 22.3688 33.739 23.3766 32.7406 23.8359C32.1875 24.0891 31.5828 24.0375 31.0109 23.6953C30.5094 23.3906 30.1719 23.4141 29.8765 23.7656C29.6187 24.0656 29.6703 24.5063 29.9937 24.8063C30.1906 24.9891 30.7344 25.2703 31.0484 25.3547L31.2406 25.4063L31.2594 25.9641C31.2734 26.5688 31.3109 26.6672 31.5969 26.8781C31.7797 27.0141 32.2203 27.0141 32.4031 26.8781C32.689 26.6672 32.7265 26.5688 32.7406 25.9688L32.7594 25.4156L32.9984 25.3359C33.7344 25.0969 34.4609 24.5156 34.7328 23.9438C35.2156 22.9359 35.0422 21.9844 34.2265 21.1594C33.6406 20.5688 33.0875 20.3344 32.0562 20.25C31.6484 20.2172 31.4656 20.1797 31.2594 20.0859C30.2609 19.6313 30.2609 18.6234 31.2594 18.1641C31.8125 17.9109 32.4172 17.9625 32.989 18.3047C33.2328 18.4547 33.3875 18.5156 33.514 18.5156C34.2406 18.5203 34.55 17.6953 34.0109 17.1984C33.8047 17.0063 33.3453 16.7672 32.989 16.6594L32.7594 16.5938L32.7406 16.0359C32.7265 15.4313 32.689 15.3328 32.4125 15.1266C32.2531 15.0094 31.8828 14.9766 31.6953 15.0656Z" fill="black"/>
<path d="M36.9453 22.5656C36.6312 22.7016 36.4531 23.0625 36.5187 23.4141C36.5609 23.6344 36.7953 23.8922 37.0062 23.9531C37.1187 23.9859 37.7562 24 38.8531 23.9906C40.4562 23.9766 40.5312 23.9719 40.6531 23.8781C40.9016 23.6953 40.9766 23.5453 40.9766 23.25C40.9766 22.9547 40.9016 22.8047 40.6531 22.6219C40.5312 22.5281 40.4609 22.5234 38.8062 22.5141C37.4469 22.5047 37.0578 22.5141 36.9453 22.5656Z" fill="black"/>
<path d="M36.9453 25.5656C36.6312 25.7016 36.4531 26.0625 36.5187 26.4141C36.5609 26.6344 36.7953 26.8922 37.0062 26.9531C37.1187 26.9859 37.7562 27 38.8531 26.9906C40.4562 26.9766 40.5312 26.9719 40.6531 26.8781C40.9016 26.6953 40.9766 26.5453 40.9766 26.25C40.9766 25.9547 40.9016 25.8047 40.6531 25.6219C40.5312 25.5281 40.4609 25.5234 38.8062 25.5141C37.4469 25.5047 37.0578 25.5141 36.9453 25.5656Z" fill="black"/>
<path d="M29.4453 28.5656C29.1312 28.7016 28.9531 29.0625 29.0187 29.4141C29.0609 29.6344 29.2953 29.8922 29.5062 29.9531C29.6234 29.9906 31.3859 30 35.1031 29.9906C40.4937 29.9766 40.5266 29.9766 40.6531 29.8781C40.9016 29.6953 40.9766 29.5453 40.9766 29.25C40.9766 28.9547 40.9016 28.8047 40.6531 28.6219C40.5266 28.5234 40.4984 28.5234 35.0562 28.5141C30.5797 28.5047 29.5578 28.5141 29.4453 28.5656Z" fill="black"/>
<path d="M29.4453 31.5656C29.1312 31.7016 28.9531 32.0625 29.0187 32.4141C29.0609 32.6344 29.2953 32.8922 29.5062 32.9531C29.6234 32.9906 31.3859 33 35.1031 32.9906C40.4937 32.9766 40.5266 32.9766 40.6531 32.8781C40.9016 32.6953 40.9766 32.5453 40.9766 32.25C40.9766 31.9547 40.9016 31.8047 40.6531 31.6219C40.5266 31.5234 40.4984 31.5234 35.0562 31.5141C30.5797 31.5047 29.5578 31.5141 29.4453 31.5656Z" fill="black"/>
</svg>
