<svg width="108" height="144" viewBox="0 0 108 144" fill="none" xmlns="http://www.w3.org/2000/svg">
<g clip-path="url(#clip0)">
<path fill-rule="evenodd" clip-rule="evenodd" d="M5.63 143.5C4.27117 143.5 2.96785 142.961 2.00607 142.001C1.0443 141.041 0.502649 139.739 0.5 138.38V15.5H107.5V138.38C107.5 139.739 106.961 141.042 106.001 142.004C105.041 142.966 103.739 143.507 102.38 143.51L5.63 143.5Z" fill="white"/>
<path d="M107 16V138.38C107 139.606 106.514 140.782 105.647 141.65C104.781 142.518 103.606 143.007 102.38 143.01H5.63C4.40205 143.01 3.22439 142.522 2.3561 141.654C1.4878 140.786 1 139.608 1 138.38V16H107ZM108 15H0V138.38C-1.16967e-06 139.119 0.145695 139.85 0.428752 140.533C0.711808 141.215 1.12667 141.835 1.64959 142.357C2.17252 142.879 2.79324 143.293 3.47625 143.575C4.15925 143.857 4.89113 144.001 5.63 144H102.38C103.119 144.001 103.851 143.857 104.534 143.575C105.217 143.293 105.837 142.879 106.36 142.357C106.883 141.835 107.298 141.215 107.581 140.533C107.864 139.85 108.01 139.119 108.01 138.38V15H108Z" fill="#C6CBD5"/>
<path fill-rule="evenodd" clip-rule="evenodd" d="M0.5 15.5V5.63C0.5 4.26944 1.04048 2.9646 2.00254 2.00254C2.9646 1.04048 4.26944 0.5 5.63 0.5H102.38C103.741 0.5 105.045 1.04048 106.007 2.00254C106.97 2.9646 107.51 4.26944 107.51 5.63V15.5H0.5Z" fill="#E6EAED"/>
<path d="M102.38 1.00001C103.606 1.00266 104.781 1.49163 105.647 2.35963C106.514 3.22764 107 4.40379 107 5.63001V15H1V5.63001C1 4.40206 1.4878 3.2244 2.3561 2.3561C3.22439 1.48781 4.40205 1.00001 5.63 1.00001H102.38ZM102.38 8.91348e-06H5.63C4.89029 -0.00130848 4.15759 0.143417 3.47394 0.425884C2.79028 0.708351 2.16911 1.123 1.64605 1.64606C1.123 2.16912 0.708344 2.79029 0.425876 3.47394C0.143409 4.1576 -0.0013161 4.8903 1.28409e-06 5.63001V16H108V5.63001C108.001 4.89114 107.857 4.15926 107.575 3.47626C107.293 2.79325 106.879 2.17253 106.357 1.6496C105.835 1.12668 105.215 0.711817 104.533 0.428761C103.85 0.145704 103.119 7.7438e-06 102.38 8.91348e-06Z" fill="#C6CBD5"/>
<path d="M11 10C12.1046 10 13 9.10457 13 8C13 6.89543 12.1046 6 11 6C9.89543 6 9 6.89543 9 8C9 9.10457 9.89543 10 11 10Z" fill="#FF6259"/>
<path d="M17 10C18.1046 10 19 9.10457 19 8C19 6.89543 18.1046 6 17 6C15.8954 6 15 6.89543 15 8C15 9.10457 15.8954 10 17 10Z" fill="#FFBD2D"/>
<path d="M23 10C24.1046 10 25 9.10457 25 8C25 6.89543 24.1046 6 23 6C21.8954 6 21 6.89543 21 8C21 9.10457 21.8954 10 23 10Z" fill="#2BCA41"/>
</g>
<defs>
<clipPath id="clip0">
<rect width="108" height="144" fill="white"/>
</clipPath>
</defs>
</svg>
