<svg width="108" height="144" viewBox="0 0 108 144" fill="none" xmlns="http://www.w3.org/2000/svg">
<g clip-path="url(#clip0)">
<path d="M79 67H28C26.8954 67 26 67.8954 26 69V75C26 76.1046 26.8954 77 28 77H79C80.1046 77 81 76.1046 81 75V69C81 67.8954 80.1046 67 79 67Z" fill="#CBD5E0"/>
<path d="M79 92H28C26.8954 92 26 92.8954 26 94V100C26 101.105 26.8954 102 28 102H79C80.1046 102 81 101.105 81 100V94C81 92.8954 80.1046 92 79 92Z" fill="#CBD5E0"/>
<path d="M26 42C26 41.4696 26.2107 40.9609 26.5858 40.5858C26.9609 40.2107 27.4696 40 28 40H85C85.5304 40 86.0391 40.2107 86.4142 40.5858C86.7893 40.9609 87 41.4696 87 42C87 42.5304 86.7893 43.0391 86.4142 43.4142C86.0391 43.7893 85.5304 44 85 44H28C27.4696 44 26.9609 43.7893 26.5858 43.4142C26.2107 43.0391 26 42.5304 26 42Z" fill="#E2E8F0"/>
<path d="M26 110C26 109.47 26.2107 108.961 26.5858 108.586C26.9609 108.211 27.4696 108 28 108H79C79.5304 108 80.0391 108.211 80.4142 108.586C80.7893 108.961 81 109.47 81 110V116C81 116.53 80.7893 117.039 80.4142 117.414C80.0391 117.789 79.5304 118 79 118H28C27.4696 118 26.9609 117.789 26.5858 117.414C26.2107 117.039 26 116.53 26 116V110Z" fill="#6366F1"/>
<path d="M47.33 112.916C46.9279 112.8 46.635 112.658 46.451 112.491C46.2688 112.321 46.1776 112.113 46.1776 111.866C46.1776 111.586 46.2891 111.355 46.5121 111.172C46.7367 110.988 47.028 110.896 47.3861 110.896C47.6302 110.896 47.8475 110.944 48.038 111.038C48.23 111.132 48.3781 111.263 48.4823 111.429C48.5881 111.595 48.641 111.776 48.641 111.973H48.1698C48.1698 111.758 48.1014 111.59 47.9647 111.468C47.828 111.344 47.6351 111.282 47.3861 111.282C47.155 111.282 46.9743 111.333 46.8441 111.436C46.7155 111.537 46.6512 111.678 46.6512 111.858C46.6512 112.003 46.7123 112.126 46.8344 112.227C46.958 112.326 47.1672 112.417 47.4618 112.5C47.758 112.583 47.9891 112.675 48.1552 112.776C48.3228 112.876 48.4465 112.992 48.5262 113.125C48.6076 113.259 48.6483 113.416 48.6483 113.597C48.6483 113.885 48.536 114.116 48.3114 114.29C48.0868 114.463 47.7865 114.549 47.4105 114.549C47.1664 114.549 46.9385 114.502 46.7269 114.41C46.5153 114.315 46.3518 114.187 46.2362 114.024C46.1223 113.861 46.0653 113.676 46.0653 113.47H46.5365C46.5365 113.685 46.6154 113.855 46.7733 113.98C46.9328 114.104 47.1452 114.166 47.4105 114.166C47.6579 114.166 47.8475 114.115 47.9794 114.014C48.1112 113.913 48.1771 113.776 48.1771 113.602C48.1771 113.427 48.1161 113.293 47.994 113.199C47.8719 113.103 47.6506 113.008 47.33 112.916ZM49.6713 114.5H49.2196V111.858H49.6713V114.5ZM49.183 111.158C49.183 111.084 49.205 111.023 49.2489 110.972C49.2945 110.922 49.3612 110.896 49.4491 110.896C49.537 110.896 49.6037 110.922 49.6493 110.972C49.6949 111.023 49.7177 111.084 49.7177 111.158C49.7177 111.231 49.6949 111.292 49.6493 111.341C49.6037 111.39 49.537 111.414 49.4491 111.414C49.3612 111.414 49.2945 111.39 49.2489 111.341C49.205 111.292 49.183 111.231 49.183 111.158ZM50.2889 113.157C50.2889 112.745 50.3842 112.418 50.5746 112.176C50.765 111.932 51.0173 111.81 51.3314 111.81C51.6537 111.81 51.9052 111.924 52.0858 112.151L52.1078 111.858H52.5204V114.437C52.5204 114.778 52.4187 115.048 52.2152 115.245C52.0134 115.442 51.7416 115.54 51.3998 115.54C51.2094 115.54 51.023 115.499 50.8407 115.418C50.6584 115.337 50.5192 115.225 50.4232 115.083L50.6576 114.812C50.8513 115.052 51.0881 115.171 51.368 115.171C51.5878 115.171 51.7587 115.11 51.8807 114.986C52.0044 114.862 52.0663 114.688 52.0663 114.463V114.236C51.8856 114.445 51.639 114.549 51.3265 114.549C51.0173 114.549 50.7666 114.424 50.5746 114.175C50.3842 113.926 50.2889 113.587 50.2889 113.157ZM50.743 113.208C50.743 113.506 50.8041 113.741 50.9261 113.912C51.0482 114.081 51.2191 114.166 51.4388 114.166C51.7237 114.166 51.9328 114.036 52.0663 113.777V112.571C51.9279 112.319 51.7204 112.193 51.4437 112.193C51.224 112.193 51.0523 112.278 50.9286 112.449C50.8049 112.62 50.743 112.873 50.743 113.208ZM53.6312 111.858L53.6459 112.19C53.8477 111.937 54.1114 111.81 54.4369 111.81C54.9952 111.81 55.2767 112.125 55.2816 112.754V114.5H54.83V112.752C54.8283 112.562 54.7844 112.421 54.6981 112.33C54.6135 112.238 54.4808 112.193 54.3002 112.193C54.1537 112.193 54.0251 112.232 53.9144 112.31C53.8038 112.388 53.7175 112.491 53.6556 112.618V114.5H53.204V111.858H53.6312ZM58.8339 114.239C58.6581 114.445 58.4001 114.549 58.0599 114.549C57.7784 114.549 57.5635 114.467 57.4154 114.305C57.2689 114.14 57.1949 113.898 57.1932 113.577V111.858H57.6449V113.565C57.6449 113.965 57.8077 114.166 58.1332 114.166C58.4782 114.166 58.7077 114.037 58.8217 113.78V111.858H59.2733V114.5H58.8436L58.8339 114.239ZM62.1932 113.208C62.1932 113.611 62.1013 113.934 61.9174 114.18C61.7334 114.426 61.4844 114.549 61.1703 114.549C60.8497 114.549 60.5974 114.447 60.4135 114.244V115.516H59.9618V111.858H60.3744L60.3964 112.151C60.5803 111.924 60.8358 111.81 61.163 111.81C61.4803 111.81 61.731 111.929 61.9149 112.168C62.1005 112.408 62.1932 112.741 62.1932 113.167V113.208ZM61.7416 113.157C61.7416 112.859 61.6781 112.624 61.5511 112.452C61.4242 112.279 61.25 112.193 61.0287 112.193C60.7552 112.193 60.5502 112.314 60.4135 112.557V113.819C60.5485 114.06 60.7552 114.18 61.0336 114.18C61.25 114.18 61.4218 114.095 61.5487 113.924C61.6773 113.751 61.7416 113.496 61.7416 113.157Z" fill="white"/>
<path d="M57 85H29C27.8954 85 27 85.8954 27 87C27 88.1046 27.8954 89 29 89H57C58.1046 89 59 88.1046 59 87C59 85.8954 58.1046 85 57 85Z" fill="#A0AEC0"/>
<path d="M57 60H29C27.8954 60 27 60.8954 27 62C27 63.1046 27.8954 64 29 64H57C58.1046 64 59 63.1046 59 62C59 60.8954 58.1046 60 57 60Z" fill="#A0AEC0"/>
<path d="M69.5 30H28.5C27.1193 30 26 31.1193 26 32.5C26 33.8807 27.1193 35 28.5 35H69.5C70.8807 35 72 33.8807 72 32.5C72 31.1193 70.8807 30 69.5 30Z" fill="#4A5568"/>
</g>
<defs>
<clipPath id="clip0">
<rect width="108" height="144" fill="white"/>
</clipPath>
</defs>
</svg>
