<svg width="100%" height="140" viewBox="0 0 1153 140" fill="none" xmlns="http://www.w3.org/2000/svg">
<g clip-path="url(#clip0_63_2)">
<path d="M167.756 46.6726C167.754 54.8511 165.652 62.8814 161.665 69.9374C157.723 62.8552 152.051 56.9758 145.221 52.8915C138.39 48.8071 130.643 46.6622 122.759 46.6726C112.448 46.6774 102.56 50.9293 95.2709 58.4935C87.9815 66.0578 83.8866 76.315 83.8866 87.0101V93.3274H44.9972C39.0151 93.4489 33.0696 92.3317 27.5088 90.0412C21.948 87.7507 16.8834 84.3329 12.6114 79.9878C8.33934 75.6426 4.94568 70.4574 2.62896 64.7354C0.31223 59.0135 -0.881042 52.8697 -0.881042 46.6637C-0.881042 40.4576 0.31223 34.3139 2.62896 28.592C4.94568 22.87 8.33934 17.6848 12.6114 13.3396C16.8834 8.99446 21.948 5.57664 27.5088 3.28615C33.0696 0.995659 39.0151 -0.121511 44.9972 6.96257e-06H122.759C134.683 0.0330708 146.11 4.96097 154.541 13.7066C162.973 22.4523 167.724 34.3045 167.756 46.6726Z" fill="#00DACB"/>
<path d="M161.665 70.0089C157.71 77.0789 152.035 82.9484 145.208 87.0309C138.38 91.1134 130.639 93.2661 122.759 93.2737H83.8866V87.0101C83.8866 76.315 87.9815 66.0578 95.2709 58.4935C102.56 50.9293 112.448 46.6774 122.759 46.6726C130.639 46.6839 138.378 48.838 145.205 52.9202C152.032 57.0023 157.707 62.8699 161.665 69.9374V70.0089Z" fill="#4D00BB"/>
<path d="M167.739 94.4548C167.152 119.903 146.396 140 121.793 140H83.8348V93.3274H122.759C130.639 93.3198 138.38 91.1671 145.208 87.0846C152.035 83.0021 157.71 77.1326 161.665 70.0627C165.842 77.4475 167.945 85.896 167.739 94.4548Z" fill="#7600FF"/>
<path d="M270.604 22.1373C274.66 22.0955 278.709 22.5035 282.681 23.3542C286.031 24.0287 289.219 25.3786 292.067 27.3271C294.676 29.1893 296.765 31.7326 298.123 34.7002C299.658 38.2653 300.395 42.144 300.28 46.0463C300.432 50.3447 299.318 54.5892 297.088 58.2155C294.69 61.7041 291.438 64.4656 287.668 66.215C292.841 67.5087 297.395 70.6835 300.504 75.163C303.421 79.7469 304.904 85.1529 304.749 90.643C304.838 95.0372 303.871 99.3853 301.936 103.295C300.184 106.767 297.658 109.755 294.569 112.011C291.375 114.323 287.803 116.014 284.027 117.004C280.053 118.095 275.958 118.642 271.846 118.632H226.832V22.1373H270.604ZM267.999 61.1862C271.199 61.3293 274.357 60.3801 276.988 58.484C279.288 56.6944 280.438 53.7654 280.438 49.6971C280.509 47.7801 280.105 45.8764 279.265 44.1672C278.532 42.7722 277.454 41.6048 276.142 40.7849C274.753 39.9442 273.227 39.374 271.639 39.1026C269.897 38.7758 268.13 38.614 266.36 38.6195H247.208V61.1862H267.999ZM269.155 102.15C271.079 102.153 272.999 101.949 274.883 101.542C276.601 101.176 278.238 100.484 279.714 99.5015C281.117 98.5333 282.257 97.2087 283.026 95.6538C283.921 93.7193 284.347 91.5878 284.269 89.4439C284.269 84.4927 282.923 80.9553 280.231 78.8316C277.108 76.5772 273.353 75.4572 269.552 75.6462H247.277V102.15H269.155Z" fill="#191E3E"/>
<path d="M363.738 118.632V108.897H363.342C361.241 112.728 358.054 115.796 354.214 117.684C350.635 119.453 346.723 120.375 342.758 120.386C338.611 120.525 334.476 119.839 330.577 118.364C327.627 117.177 325.035 115.194 323.072 112.619C321.145 109.937 319.819 106.844 319.19 103.564C318.413 99.6732 318.037 95.7078 318.068 91.7346V48.7844H336.581V88.1554C336.581 93.9179 337.45 98.2189 339.187 101.058C340.924 103.898 344.035 105.342 348.521 105.389C353.559 105.389 357.205 103.832 359.46 100.718C361.714 97.6045 362.864 92.4922 362.91 85.3816V48.7665H381.302V118.561L363.738 118.632Z" fill="#191E3E"/>
<path d="M413.118 101.273C413.914 102.696 415.004 103.918 416.31 104.852C417.677 105.825 419.203 106.535 420.813 106.946C422.537 107.41 424.312 107.638 426.093 107.626C427.473 107.623 428.85 107.467 430.199 107.161C431.56 106.862 432.874 106.361 434.098 105.676C435.258 105.013 436.26 104.09 437.031 102.973C437.856 101.722 438.267 100.228 438.205 98.7141C438.205 95.8388 436.358 93.6734 432.666 92.2178C427.598 90.3915 422.408 88.9501 417.138 87.9049C414.446 87.2607 411.824 86.5269 409.253 85.6679C406.811 84.8824 404.488 83.7438 402.352 82.2856C400.387 80.929 398.741 79.1307 397.538 77.0242C396.254 74.6513 395.622 71.9589 395.709 69.2394C395.558 65.3754 396.436 61.5429 398.245 58.1618C399.887 55.3338 402.197 52.987 404.957 51.3435C407.867 49.6051 411.041 48.3947 414.343 47.7643C417.866 47.0945 421.441 46.7591 425.023 46.7621C428.591 46.7543 432.151 47.1139 435.651 47.8359C438.886 48.4741 441.991 49.6848 444.83 51.4151C447.535 53.1405 449.829 55.4774 451.541 58.2513C453.45 61.4992 454.548 65.1899 454.733 68.9889H437.135C436.882 65.3023 435.536 62.8029 433.098 61.4905C430.418 60.1192 427.458 59.4437 424.471 59.5219C423.318 59.5255 422.165 59.5972 421.02 59.7367C419.879 59.8503 418.761 60.146 417.707 60.6136C416.724 61.0447 415.854 61.7136 415.171 62.5642C414.426 63.544 414.052 64.7723 414.119 66.0182C414.098 66.8142 414.252 67.6047 414.569 68.3301C414.886 69.0555 415.357 69.6969 415.948 70.2058C417.424 71.4897 419.139 72.4459 420.986 73.0155C423.185 73.7534 425.427 74.351 427.697 74.8051C430.199 75.3419 432.77 75.9325 435.375 76.5947C438.04 77.2229 440.672 77.9934 443.26 78.9032C445.721 79.7286 448.048 80.9353 450.161 82.4824C452.138 83.9424 453.786 85.8289 454.992 88.0123C456.275 90.5278 456.905 93.3462 456.821 96.1907C456.998 99.971 456.197 103.731 454.501 107.083C452.805 110.434 450.276 113.254 447.176 115.25C444.165 117.201 440.83 118.554 437.342 119.241C433.627 120.01 429.847 120.393 426.058 120.386C422.209 120.389 418.37 119.981 414.602 119.169C411.073 118.443 407.697 117.074 404.629 115.125C401.475 113.108 398.876 110.28 397.084 106.916C395.291 103.552 394.366 99.7656 394.398 95.9223H411.996C411.918 97.7765 412.305 99.6201 413.118 101.273Z" fill="#191E3E"/>
<path d="M470.072 37.9395V22.1374H488.585V37.9395H470.072ZM488.585 48.7666V118.561H470.072V48.7666H488.585Z" fill="#191E3E"/>
<path d="M522.609 48.7665V58.484H523.006C525.123 54.6536 528.304 51.5731 532.133 49.6434C535.699 47.8284 539.617 46.8798 543.589 46.8695C547.743 46.7254 551.883 47.437 555.77 48.9633C558.722 50.1822 561.311 52.1887 563.275 54.7795C565.18 57.4683 566.488 60.5605 567.105 63.8349C567.882 67.7196 568.258 71.679 568.227 75.6462V118.596H549.714V79.1717C549.714 73.4092 548.846 69.1022 547.109 66.2508C545.383 63.4233 542.295 62.0095 537.861 62.0095C532.823 62.0095 529.234 63.5664 526.922 66.6624C524.61 69.7584 523.471 74.8946 523.471 81.9993V118.632H505.027V48.8381L522.609 48.7665Z" fill="#191E3E"/>
<path d="M604.028 101.882C606.806 104.673 610.791 106.069 616.105 106.069C619.53 106.165 622.897 105.145 625.733 103.152C628.009 101.75 629.756 99.585 630.685 97.0139H646.972C644.372 105.365 640.381 111.331 634.998 114.91C629.127 118.641 622.332 120.508 615.45 120.279C610.553 120.353 605.687 119.46 601.112 117.648C597.017 116.007 593.323 113.446 590.294 110.15C587.256 106.798 584.908 102.84 583.393 98.5172C581.741 93.7547 580.923 88.7245 580.977 83.6636C580.936 78.6791 581.778 73.7292 583.462 69.0605C585.01 64.7091 587.399 60.7322 590.484 57.3744C593.576 54.0522 597.278 51.4053 601.371 49.5897C605.805 47.6622 610.573 46.6998 615.381 46.7621C620.567 46.6336 625.706 47.8127 630.357 50.1981C634.503 52.3966 638.096 55.5713 640.847 59.4682C643.632 63.4429 645.648 67.9403 646.782 72.7112C648 77.786 648.437 83.0287 648.076 88.2449H599.456C599.732 94.5801 601.25 99.072 604.028 101.882ZM624.939 65.1055C622.731 62.5821 619.349 61.3294 614.846 61.3294C612.306 61.2359 609.781 61.7695 607.479 62.8864C605.666 63.8035 604.065 65.116 602.786 66.734C601.661 68.1644 600.822 69.8132 600.318 71.5838C599.872 73.0802 599.583 74.6222 599.456 76.1831H629.563C629.037 72.1188 627.436 68.2849 624.939 65.1055Z" fill="#191E3E"/>
<path d="M676.113 101.273C676.909 102.696 677.999 103.918 679.305 104.852C680.673 105.825 682.198 106.535 683.808 106.946C685.532 107.41 687.307 107.638 689.088 107.626C690.469 107.623 691.845 107.467 693.194 107.161C694.556 106.862 695.869 106.361 697.093 105.676C698.253 105.013 699.255 104.09 700.026 102.973C700.842 101.718 701.253 100.227 701.2 98.7141C701.2 95.8388 699.354 93.6734 695.661 92.2178C690.621 90.3957 685.46 88.9543 680.219 87.9049C677.528 87.2606 674.905 86.5269 672.335 85.6679C669.892 84.8824 667.569 83.7438 665.433 82.2856C663.467 80.925 661.816 79.1278 660.602 77.0242C659.332 74.6462 658.706 71.9563 658.79 69.2394C658.639 65.3754 659.517 61.5429 661.327 58.1618C662.968 55.3338 665.278 52.987 668.038 51.3435C670.948 49.6051 674.122 48.3947 677.424 47.7643C680.947 47.0937 684.522 46.7583 688.104 46.7621C691.667 46.7541 695.221 47.1138 698.715 47.8359C701.956 48.4711 705.067 49.682 707.911 51.4151C710.612 53.1458 712.905 55.4817 714.623 58.2513C716.532 61.4992 717.629 65.1899 717.815 68.9889H700.216C699.963 65.3023 698.617 62.8029 696.179 61.4905C693.499 60.1192 690.539 59.4437 687.552 59.5219C686.399 59.5255 685.247 59.5972 684.101 59.7367C682.96 59.848 681.842 60.1438 680.789 60.6136C679.803 61.0494 678.929 61.7172 678.235 62.5642C677.503 63.5503 677.136 64.7755 677.2 66.0182C677.179 66.8142 677.333 67.6047 677.65 68.3301C677.967 69.0555 678.438 69.6969 679.029 70.2058C680.434 71.3891 682.045 72.2821 683.774 72.8365C685.975 73.57 688.216 74.1676 690.485 74.6261C693.004 75.163 695.575 75.7536 698.18 76.4157C700.845 77.0439 703.477 77.8145 706.065 78.7243C708.525 79.5529 710.851 80.7594 712.967 82.3035C714.943 83.7634 716.591 85.6499 717.798 87.8333C719.075 90.3505 719.699 93.1688 719.609 96.0118C719.793 99.7911 718.997 103.553 717.304 106.905C715.611 110.257 713.082 113.077 709.982 115.071C706.964 117.022 703.624 118.375 700.13 119.062C696.42 119.831 692.646 120.214 688.863 120.207C685.014 120.21 681.175 119.802 677.407 118.99C673.878 118.268 670.5 116.898 667.435 114.946C664.328 112.931 661.772 110.125 660.008 106.795C658.244 103.465 657.332 99.7218 657.358 95.9223H674.957C674.882 97.7803 675.281 99.626 676.113 101.273Z" fill="#191E3E"/>
<path d="M748.423 101.273C749.214 102.699 750.305 103.923 751.614 104.852C752.973 105.83 754.494 106.54 756.1 106.946C757.825 107.407 759.599 107.636 761.38 107.626C762.761 107.624 764.137 107.468 765.486 107.161C766.853 106.862 768.172 106.361 769.403 105.676C770.559 105.008 771.561 104.086 772.336 102.973C773.151 101.718 773.562 100.227 773.509 98.7141C773.509 95.8388 771.663 93.6734 767.971 92.2178C762.93 90.398 757.769 88.9566 752.529 87.9049C749.837 87.2606 747.198 86.5269 744.644 85.6679C742.201 84.8844 739.877 83.7457 737.743 82.2856C735.777 80.929 734.132 79.1307 732.929 77.0242C731.645 74.6513 731.012 71.9589 731.1 69.2394C730.949 65.3754 731.826 61.5429 733.636 58.1618C735.283 55.3377 737.592 52.992 740.348 51.3435C743.259 49.608 746.432 48.3977 749.734 47.7643C753.257 47.0945 756.832 46.7591 760.414 46.7621C763.982 46.7533 767.542 47.113 771.042 47.8359C774.278 48.471 777.383 49.6819 780.221 51.4151C782.926 53.1405 785.22 55.4774 786.932 58.2513C788.841 61.4992 789.938 65.1899 790.124 68.9889H772.595C772.336 65.3023 770.973 62.7969 768.557 61.4905C765.877 60.1226 762.917 59.4472 759.931 59.5219C758.777 59.5248 757.625 59.5965 756.48 59.7367C755.333 59.8479 754.209 60.1437 753.15 60.6136C752.167 61.0447 751.297 61.7136 750.614 62.5642C749.882 63.5503 749.515 64.7755 749.579 66.0182C749.563 66.8117 749.718 67.5988 750.031 68.3229C750.344 69.047 750.809 69.6901 751.39 70.2058C752.804 71.3856 754.419 72.2781 756.152 72.8365C758.353 73.5722 760.594 74.1698 762.864 74.6261C765.383 75.163 767.936 75.7536 770.542 76.4157C773.207 77.0417 775.839 77.8122 778.426 78.7243C780.887 79.5514 783.213 80.758 785.328 82.3035C787.348 83.8022 789.017 85.7534 790.211 88.0123C791.466 90.5348 792.061 93.3549 791.936 96.1907C792.113 99.971 791.311 103.731 789.616 107.083C787.92 110.434 785.391 113.254 782.291 115.25C779.281 117.204 775.946 118.557 772.457 119.241C768.747 120.009 764.973 120.392 761.19 120.386C757.335 120.389 753.491 119.981 749.717 119.169C746.189 118.44 742.813 117.071 739.744 115.125C736.59 113.109 733.991 110.282 732.201 106.917C730.412 103.553 729.491 99.7649 729.53 95.9223H747.111C747.084 97.7949 747.536 99.6414 748.423 101.273Z" fill="#191E3E"/>
<path d="M848.51 22.1373C853.58 22.0002 858.627 22.8939 863.365 24.768C867.139 26.3067 870.543 28.6827 873.338 31.7295C875.869 34.5599 877.782 37.9233 878.945 41.5902C881.292 49.0319 881.292 57.0553 878.945 64.497C877.791 68.1893 875.877 71.578 873.338 74.4292C870.547 77.4814 867.142 79.8582 863.365 81.3908C858.635 83.3044 853.586 84.2289 848.51 84.1109H827.012V118.632H806.55V22.1373H848.51ZM842.903 67.5393C845.173 67.5457 847.44 67.3662 849.683 67.0024C851.707 66.7024 853.654 65.9908 855.412 64.9086C857.093 63.8409 858.468 62.3274 859.397 60.5241C860.487 58.2106 861.002 55.6518 860.898 53.0794C861.003 50.5127 860.487 47.9597 859.397 45.6526C858.474 43.8407 857.097 42.32 855.412 41.2502C853.646 40.1843 851.703 39.4739 849.683 39.1563C847.44 38.7926 845.173 38.613 842.903 38.6195H827.012V67.5393H842.903Z" fill="#191E3E"/>
<path d="M909.57 48.7665V61.741H909.829C910.682 59.5631 911.845 57.5302 913.28 55.7101C914.769 53.8769 916.513 52.2845 918.456 50.9856C920.355 49.6874 922.415 48.6639 924.581 47.9432C926.768 47.2231 929.05 46.8608 931.344 46.8695C932.715 46.8869 934.076 47.1161 935.382 47.5495V65.4455C934.519 65.2665 933.484 65.1234 932.259 64.9802C931.113 64.8479 929.961 64.7821 928.808 64.7833C925.839 64.6929 922.888 65.3049 920.181 66.5729C917.92 67.6157 915.945 69.2273 914.436 71.2617C912.953 73.4037 911.913 75.8409 911.382 78.42C910.756 81.3035 910.449 84.2515 910.467 87.207V118.704H892.006V48.9096L909.57 48.7665Z" fill="#191E3E"/>
<path d="M965.006 101.882C967.801 104.673 971.786 106.069 977.083 106.069C980.513 106.168 983.887 105.148 986.728 103.152C989.004 101.75 990.751 99.585 991.68 97.0139H1007.97C1005.37 105.365 1001.37 111.331 995.976 114.91C990.106 118.643 983.31 120.51 976.428 120.279C971.536 120.355 966.676 119.462 962.107 117.648C958.012 116.007 954.318 113.446 951.289 110.15C948.258 106.793 945.911 102.837 944.388 98.5172C942.742 93.7536 941.93 88.7234 941.99 83.6636C941.953 78.6811 942.789 73.7331 944.457 69.0605C946.003 64.716 948.391 60.7465 951.474 57.3975C954.558 54.0485 958.27 51.3911 962.383 49.5897C966.811 47.6622 971.574 46.6997 976.376 46.7621C981.568 46.6336 986.713 47.8126 991.369 50.1981C995.513 52.401 999.104 55.5749 1001.86 59.4682C1004.64 63.4429 1006.66 67.9403 1007.79 72.7112C1009.01 77.786 1009.45 83.0287 1009.09 88.2449H960.451C960.71 94.5801 962.228 99.072 965.006 101.882ZM985.934 65.1055C983.703 62.5762 980.333 61.3175 975.824 61.3294C973.29 61.2374 970.77 61.771 968.474 62.8864C966.761 63.7405 965.239 64.9548 964.003 66.4521C962.768 67.9495 961.846 69.697 961.296 71.5838C960.855 73.0806 960.571 74.6227 960.451 76.1831H990.558C990.024 72.121 988.424 68.2892 985.934 65.1055Z" fill="#191E3E"/>
<path d="M1037.11 101.273C1037.9 102.699 1038.99 103.923 1040.3 104.852C1041.66 105.83 1043.18 106.54 1044.79 106.946C1046.51 107.407 1048.28 107.636 1050.07 107.626C1051.45 107.624 1052.82 107.468 1054.17 107.161C1055.54 106.862 1056.86 106.361 1058.09 105.676C1059.25 105.008 1060.25 104.086 1061.02 102.973C1061.84 101.718 1062.25 100.227 1062.19 98.714C1062.19 95.8388 1060.35 93.6734 1056.66 92.2178C1051.62 90.398 1046.45 88.9566 1041.21 87.9049C1038.52 87.2606 1035.88 86.5269 1033.33 85.6679C1030.89 84.8844 1028.56 83.7457 1026.43 82.2856C1024.47 80.9243 1022.82 79.127 1021.61 77.0242C1020.33 74.6513 1019.7 71.9589 1019.79 69.2394C1019.63 65.3728 1020.52 61.5377 1022.34 58.1618C1023.97 55.3345 1026.28 52.9875 1029.03 51.3435C1031.95 49.6108 1035.12 48.4007 1038.42 47.7643C1041.94 47.0953 1045.52 46.7599 1049.1 46.7621C1052.67 46.7533 1056.23 47.113 1059.73 47.8359C1062.96 48.471 1066.07 49.6819 1068.91 51.4151C1071.61 53.1405 1073.91 55.4774 1075.62 58.2513C1077.53 61.4992 1078.62 65.1899 1078.81 68.9889H1061.28C1061.02 65.3023 1059.67 62.8029 1057.24 61.4905C1054.56 60.1206 1051.6 59.4451 1048.62 59.5219C1047.46 59.5248 1046.31 59.5965 1045.17 59.7367C1044.02 59.8479 1042.9 60.1437 1041.84 60.6136C1040.85 61.0447 1039.98 61.7136 1039.3 62.5642C1038.57 63.5503 1038.2 64.7755 1038.26 66.0182C1038.24 66.8047 1038.38 67.5875 1038.68 68.3111C1038.98 69.0348 1039.42 69.6816 1039.99 70.2058C1041.4 71.3856 1043.02 72.2781 1044.75 72.8365C1046.95 73.5722 1049.19 74.1698 1051.46 74.6261C1053.98 75.163 1056.64 75.7536 1059.16 76.4157C1061.82 77.0417 1064.44 77.8122 1067.03 78.7243C1069.49 79.5514 1071.81 80.758 1073.93 82.3035C1075.9 83.7589 1077.55 85.6467 1078.74 87.8333C1080.03 90.3456 1080.66 93.1663 1080.57 96.0118C1080.75 99.792 1079.95 103.552 1078.25 106.904C1076.55 110.255 1074.03 113.075 1070.93 115.071C1067.92 117.025 1064.58 118.378 1061.09 119.062C1057.38 119.83 1053.61 120.213 1049.82 120.207C1045.97 120.21 1042.12 119.802 1038.35 118.99C1034.83 118.264 1031.46 116.895 1028.4 114.946C1025.48 113.048 1023.02 110.476 1021.22 107.429C1019.23 103.878 1018.18 99.8487 1018.16 95.7433H1035.75C1035.7 97.6813 1036.17 99.5943 1037.11 101.273Z" fill="#191E3E"/>
<path d="M1109.4 101.273C1110.2 102.696 1111.29 103.918 1112.59 104.852C1113.96 105.825 1115.49 106.534 1117.1 106.946C1118.82 107.41 1120.59 107.638 1122.38 107.626C1123.76 107.623 1125.13 107.467 1126.48 107.161C1127.84 106.862 1129.16 106.361 1130.38 105.676C1131.54 105.013 1132.54 104.09 1133.31 102.973C1134.14 101.722 1134.55 100.228 1134.49 98.7141C1134.49 95.8388 1132.64 93.6734 1128.95 92.2178C1123.88 90.3915 1118.69 88.9501 1113.42 87.9049C1110.73 87.2606 1108.11 86.5269 1105.54 85.6679C1103.09 84.8824 1100.77 83.7438 1098.63 82.2856C1096.67 80.9289 1095.02 79.1306 1093.82 77.0242C1092.6 74.6512 1092.02 71.9796 1092.15 69.2931C1092 65.4291 1092.87 61.5965 1094.68 58.2155C1096.32 55.3875 1098.63 53.0406 1101.39 51.3972C1104.3 49.6588 1107.48 48.4484 1110.78 47.818C1114.3 47.1482 1117.88 46.8127 1121.46 46.8158C1125.03 46.8079 1128.59 47.1676 1132.09 47.8896C1135.32 48.5278 1138.43 49.7385 1141.27 51.4687C1143.97 53.1942 1146.27 55.5311 1147.98 58.305C1149.89 61.5529 1150.99 65.2436 1151.17 69.0426H1133.56C1133.3 65.356 1131.96 62.8565 1129.52 61.5442C1126.84 60.1729 1123.88 59.4974 1120.89 59.5756C1119.74 59.5791 1118.59 59.6508 1117.44 59.7904C1116.3 59.9039 1115.18 60.1997 1114.13 60.6673C1113.14 61.0984 1112.28 61.7673 1111.59 62.6179C1110.85 63.5977 1110.47 64.826 1110.54 66.0718C1110.52 66.8679 1110.67 67.6584 1110.99 68.3838C1111.31 69.1092 1111.78 69.7505 1112.37 70.2595C1113.78 71.4462 1115.39 72.3395 1117.13 72.8902C1119.33 73.6281 1121.57 74.2257 1123.84 74.6798C1126.34 75.2167 1128.91 75.8072 1131.52 76.4694C1134.18 77.0976 1136.82 77.8681 1139.4 78.778C1141.87 79.6033 1144.19 80.81 1146.31 82.3572C1148.28 83.8171 1149.93 85.7036 1151.14 87.887C1152.42 90.4026 1153.05 93.2209 1152.97 96.0654C1153.14 99.8457 1152.34 103.606 1150.65 106.957C1148.95 110.308 1146.42 113.128 1143.32 115.125C1140.31 117.078 1136.98 118.432 1133.49 119.115C1129.77 119.884 1125.99 120.268 1122.2 120.261C1118.35 120.264 1114.51 119.856 1110.75 119.044C1107.23 118.357 1103.85 117.03 1100.77 115.125C1097.62 113.108 1095.02 110.28 1093.23 106.916C1091.44 103.552 1090.51 99.7656 1090.54 95.9223H1108.14C1108.11 97.7892 1108.54 99.6335 1109.4 101.273Z" fill="#191E3E"/>
</g>
<defs>
<clipPath id="clip0_63_2">
<rect width="1153" height="140" fill="white"/>
</clipPath>
</defs>
</svg>
