<svg class="h-6 h-6" width="200" height="50" viewBox="0 0 204 37" fill="none" xmlns="http://www.w3.org/2000/svg">
<g clip-path="url(#clip0_589_6318)">
<path d="M27.465 137.978L0 2.02209H35.3724L45.7561 63.3018L50.6244 108.237H52.8756L61.3176 63.3018L77.3858 2.02209H120.497L136.537 62.9086L144.979 108.152H147.202L152.098 62.9086L162.707 2.02209H197.264L169.827 137.978H125.252L108.79 77.709L99.6167 34.7122H97.5905L88.4449 77.709L72.1799 137.978H27.465Z" fill="#101217"/>
<path d="M204.918 137.978V2.02209H308.812V29.4324H235.45V55.9999H290.915V83.1857H235.45V110.596H308.84V137.978H204.918Z" fill="#101217"/>
<path d="M527.321 93.7454V91.1053H557.206V93.1273C557.206 108.152 562.834 112.421 587.288 112.421C604.566 112.421 608.844 108.967 608.844 99.8394C608.844 90.7121 606.818 87.4545 587.71 84.2248L563.707 79.9559C537.677 75.4905 526.702 62.2908 526.702 41.1995C526.702 20.1082 541.954 0.00012207 580.985 0.00012207C620.015 0.00012207 636.083 20.08 636.083 47.069V48.6981H606.002V46.4794C606.002 32.2687 600.092 27.6068 579.972 27.6068C562.497 27.6068 557.009 31.4545 557.009 39.9921C557.009 48.5297 560.668 50.72 576.511 53.7812L600.711 58.4433C629.386 64.0601 639.151 78.9448 639.151 98.8284C639.151 120.538 624.49 140 585.881 140C545.809 139.916 527.321 123.767 527.321 93.7454Z" fill="#101217"/>
<path d="M636.14 137.978L686.37 2.02209H730.691L780.893 137.978H747.772L736.798 107.759H679.054L667.797 137.978H636.14ZM689.015 80.5456H726.836L719.097 59.4543L709.136 28.8142H707.109L696.726 59.4543L689.015 80.5456Z" fill="#101217"/>
<path d="M780.894 137.978L831.124 2.02209H875.445L925.675 137.978H892.526L881.551 107.759H823.807L812.551 137.978H780.894ZM833.769 80.5456H871.59L863.851 59.4543L853.889 28.8142H851.863L841.479 59.4543L833.769 80.5456Z" fill="#101217"/>
<path d="M923.171 93.7454V91.1053H953.056V93.1273C953.056 108.152 958.684 112.421 983.166 112.421C1000.44 112.421 1004.69 108.967 1004.69 99.8394C1004.69 90.7121 1002.67 87.4545 983.56 84.2248L959.556 79.9559C933.555 75.4905 922.552 62.2908 922.552 41.1995C922.552 20.1082 937.804 0.00012207 976.835 0.00012207C1015.87 0.00012207 1031.96 20.08 1031.96 47.069V48.6981H1001.85V46.4794C1001.85 32.2687 995.97 27.6068 975.821 27.6068C958.346 27.6068 952.859 31.4545 952.859 39.9921C952.859 48.5297 956.517 50.72 972.388 53.7812L996.561 58.4433C1025.24 64.0601 1035 78.9448 1035 98.8284C1035 120.538 1020.37 140 981.731 140C941.687 139.916 923.171 123.767 923.171 93.7454Z" fill="#101217"/>
<path d="M512.829 62.4875V35.2458H459.391V2.02209H384.791L344.409 46.311L364.276 64.987L396.272 29.2638H432.095V111.101H393.12L334.391 56.0281H304.76V83.2418H323.586L382.314 138.343H459.391V105.119H512.829V77.8777H459.391V62.4875H512.829Z" fill="#0947E9"/>
</g>
<defs>
<clipPath id="clip0_589_6318">
<rect width="1035" height="140" fill="white"/>
</clipPath>
</defs>
</svg>

