<?xml version="1.0" encoding="UTF-8"?>
<svg xmlns="http://www.w3.org/2000/svg" version="1.1" width="100" height="100" viewBox="0 0 100 100"><rect x="0" y="0" width="100" height="100" fill="#ffffff"/><g transform="scale(3.448)"><g transform="translate(0,0)"><path fill-rule="evenodd" d="M8 0L8 4L9 4L9 3L10 3L10 0ZM11 0L11 1L12 1L12 0ZM14 0L14 1L16 1L16 0ZM17 0L17 1L19 1L19 3L18 3L18 2L14 2L14 3L11 3L11 4L10 4L10 5L8 5L8 7L9 7L9 8L10 8L10 7L11 7L11 8L12 8L12 9L11 9L11 11L10 11L10 13L9 13L9 10L10 10L10 9L9 9L9 10L6 10L6 9L7 9L7 8L4 8L4 10L0 10L0 11L1 11L1 12L2 12L2 13L0 13L0 14L2 14L2 13L3 13L3 16L2 16L2 15L0 15L0 16L2 16L2 17L0 17L0 18L2 18L2 20L0 20L0 21L2 21L2 20L3 20L3 21L5 21L5 20L6 20L6 21L8 21L8 22L9 22L9 23L8 23L8 25L9 25L9 27L8 27L8 29L11 29L11 28L12 28L12 29L13 29L13 28L12 28L12 27L14 27L14 28L15 28L15 27L16 27L16 29L18 29L18 28L19 28L19 29L21 29L21 26L22 26L22 25L25 25L25 26L26 26L26 27L25 27L25 28L24 28L24 29L26 29L26 27L27 27L27 29L28 29L28 28L29 28L29 25L28 25L28 24L29 24L29 17L28 17L28 16L29 16L29 13L28 13L28 12L29 12L29 8L25 8L25 9L24 9L24 8L23 8L23 9L22 9L22 10L20 10L20 11L23 11L23 12L25 12L25 11L23 11L23 10L28 10L28 11L27 11L27 14L26 14L26 13L22 13L22 14L23 14L23 15L24 15L24 14L26 14L26 15L27 15L27 18L25 18L25 17L26 17L26 16L25 16L25 17L24 17L24 16L23 16L23 17L22 17L22 15L21 15L21 14L20 14L20 15L21 15L21 16L19 16L19 15L18 15L18 14L19 14L19 13L21 13L21 12L19 12L19 11L17 11L17 10L16 10L16 9L18 9L18 10L19 10L19 9L20 9L20 7L21 7L21 6L20 6L20 5L21 5L21 4L20 4L20 3L21 3L21 1L19 1L19 0ZM16 3L16 5L14 5L14 6L13 6L13 4L12 4L12 5L10 5L10 6L9 6L9 7L10 7L10 6L11 6L11 7L12 7L12 8L13 8L13 9L12 9L12 11L13 11L13 12L11 12L11 13L10 13L10 14L9 14L9 17L8 17L8 14L7 14L7 13L6 13L6 12L8 12L8 11L6 11L6 10L4 10L4 11L2 11L2 12L4 12L4 13L6 13L6 14L4 14L4 15L5 15L5 16L7 16L7 17L5 17L5 18L4 18L4 17L2 17L2 18L4 18L4 19L3 19L3 20L4 20L4 19L5 19L5 18L7 18L7 19L6 19L6 20L8 20L8 21L9 21L9 22L10 22L10 23L9 23L9 25L10 25L10 24L11 24L11 25L12 25L12 26L14 26L14 25L16 25L16 24L17 24L17 23L16 23L16 24L15 24L15 22L14 22L14 23L13 23L13 21L15 21L15 20L16 20L16 19L15 19L15 18L14 18L14 17L15 17L15 16L14 16L14 15L15 15L15 13L16 13L16 14L18 14L18 13L19 13L19 12L18 12L18 13L16 13L16 12L14 12L14 11L15 11L15 10L13 10L13 9L16 9L16 8L15 8L15 7L16 7L16 6L17 6L17 7L18 7L18 6L19 6L19 7L20 7L20 6L19 6L19 5L20 5L20 4L19 4L19 5L18 5L18 6L17 6L17 4L18 4L18 3ZM12 6L12 7L13 7L13 6ZM14 6L14 7L15 7L15 6ZM0 8L0 9L2 9L2 8ZM18 8L18 9L19 9L19 8ZM4 11L4 12L5 12L5 11ZM11 13L11 15L12 15L12 16L11 16L11 19L8 19L8 20L9 20L9 21L10 21L10 22L11 22L11 23L12 23L12 21L13 21L13 19L12 19L12 18L13 18L13 15L14 15L14 13L13 13L13 14L12 14L12 13ZM6 14L6 15L7 15L7 14ZM27 14L27 15L28 15L28 14ZM18 16L18 17L19 17L19 19L18 19L18 21L19 21L19 22L18 22L18 25L19 25L19 26L20 26L20 25L19 25L19 22L20 22L20 21L19 21L19 19L20 19L20 20L22 20L22 17L19 17L19 16ZM16 17L16 18L17 18L17 17ZM20 18L20 19L21 19L21 18ZM24 18L24 19L23 19L23 20L24 20L24 19L25 19L25 20L26 20L26 21L25 21L25 22L27 22L27 23L26 23L26 25L27 25L27 23L28 23L28 20L27 20L27 19L28 19L28 18L27 18L27 19L25 19L25 18ZM10 20L10 21L12 21L12 20ZM16 21L16 22L17 22L17 21ZM21 21L21 24L24 24L24 21ZM22 22L22 23L23 23L23 22ZM16 26L16 27L18 27L18 26ZM9 27L9 28L10 28L10 27ZM19 27L19 28L20 28L20 27ZM22 27L22 29L23 29L23 27ZM0 0L0 7L7 7L7 0ZM1 1L1 6L6 6L6 1ZM2 2L2 5L5 5L5 2ZM22 0L22 7L29 7L29 0ZM23 1L23 6L28 6L28 1ZM24 2L24 5L27 5L27 2ZM0 22L0 29L7 29L7 22ZM1 23L1 28L6 28L6 23ZM2 24L2 27L5 27L5 24Z" fill="#000000"/></g></g></svg>
