<svg id="color" height="512" viewBox="0 0 24 24" width="512" xmlns="http://www.w3.org/2000/svg"><path d="m23.28 12.001c-.403-.023-.771.286-.798.699-.366 5.495-4.971 9.8-10.482 9.8-5.79 0-10.5-4.71-10.5-10.5s4.71-10.5 10.5-10.5c2.571 0 4.982.93 6.863 2.576l-.643.644c-.472.47-.138 1.28.53 1.28h2.5c.414 0 .75-.336.75-.75v-2.5c0-.663-.806-1.004-1.28-.53l-.796.796c-2.163-1.927-4.949-3.016-7.924-3.016-6.617 0-12 5.383-12 12s5.383 12 12 12c6.299 0 11.561-4.92 11.979-11.2.028-.413-.286-.771-.699-.799" fill="#eceff1"/><path d="m17.491 7.826-5.25-1.786c-.156-.054-.326-.054-.482 0l-5.25 1.786c-.305.103-.509.388-.509.71v4.018c0 4.904 5.474 7.288 5.707 7.387.188.08.397.08.586 0 .233-.1 5.707-2.483 5.707-7.387v-4.018c0-.322-.204-.607-.509-.71" fill="#4caf50"/><path d="m15.286 11.618-2.75 3.5c-.351.447-1.006.512-1.436.142l-1.75-1.5c-.42-.359-.469-.991-.108-1.41.359-.419.991-.467 1.409-.108l.958.821 2.105-2.679c.341-.434.969-.511 1.404-.169.434.34.51.969.168 1.403" fill="#fff"/><path d="m12 0c-6.617 0-12 5.383-12 12 0 6.617 5.383 12 12 12v-1.5c-5.79 0-10.5-4.71-10.5-10.5s4.71-10.5 10.5-10.5z" fill="#cdd0d2"/><path d="m12 6c-.082 0-.163.013-.241.04l-5.25 1.786c-.305.103-.509.388-.509.71v4.018c0 4.904 5.474 7.288 5.707 7.387.094.039.194.059.293.059v-4.532c-.082.021-.166.032-.251.032-.23 0-.461-.079-.649-.241l-1.75-1.5c-.42-.359-.469-.991-.108-1.41.197-.23.477-.349.759-.349.23 0 .462.079.65.24l.958.821.391-.498z" fill="#429846"/><path d="m10.001 12c-.282 0-.562.118-.76.349-.36.419-.311 1.051.108 1.41l1.75 1.5c.188.162.419.241.649.241.085 0 .169-.011.251-.032v-2.905l-.392.498-.958-.821c-.187-.161-.418-.24-.648-.24" fill="#dedede"/></svg>